<svg width="22" height="24" viewBox="0 0 22 24" fill="none" xmlns="http://www.w3.org/2000/svg">
<path opacity="0.939" fill-rule="evenodd" clip-rule="evenodd" d="M10.282 0.018625C12.8601 -0.159605 14.6192 0.941333 15.5593 3.32145C15.7672 4.17006 15.8509 5.03166 15.8106 5.90626C16.9357 5.89427 18.0606 5.90626 19.1852 5.94216C19.3451 6.03026 19.4528 6.16194 19.5084 6.33707C20.2024 11.5785 20.8965 16.8199 21.5906 22.0614C21.6385 22.3725 21.6385 22.6837 21.5906 22.9948C21.2652 23.3442 20.9181 23.6673 20.5495 23.9641C14.1831 24.012 7.81686 24.012 1.45053 23.9641C1.08191 23.6673 0.734823 23.3442 0.409423 22.9948C0.361532 22.6837 0.361532 22.3725 0.409423 22.0614C1.09763 16.8191 1.79165 11.5777 2.49164 6.33707C2.54082 6.15347 2.64852 6.02179 2.81474 5.94216C3.93935 5.90626 5.06425 5.89427 6.18936 5.90626C5.94129 2.78538 7.3055 0.822869 10.282 0.018625ZM10.3538 1.23923C12.45 1.07567 13.8262 1.98517 14.4823 3.96765C14.5762 4.61012 14.6121 5.25633 14.59 5.90626C12.1967 5.90626 9.8033 5.90626 7.40997 5.90626C7.45714 5.33322 7.49304 4.75882 7.51767 4.18305C7.86949 2.62268 8.81489 1.64146 10.3538 1.23923ZM3.60454 7.12687C8.53487 7.12687 13.4651 7.12687 18.3954 7.12687C19.0658 12.2502 19.724 17.3719 20.37 22.4922C20.2862 22.576 20.2024 22.6597 20.1187 22.7435C14.0395 22.7914 7.96046 22.7914 1.88133 22.7435C1.79754 22.6597 1.71382 22.576 1.63003 22.4922C2.27092 17.3713 2.92912 12.2495 3.60454 7.12687Z" fill="#151515"/>
</svg>
