<svg width="18" height="16" viewBox="0 0 18 16" fill="none" xmlns="http://www.w3.org/2000/svg">
<path opacity="0.981" fill-rule="evenodd" clip-rule="evenodd" d="M17.2227 0.246079C17.675 0.225727 17.8378 0.434059 17.711 0.871079C13.1714 4.80377 10.1246 9.68659 8.57038 15.5195C8.4378 15.6985 8.26202 15.7571 8.04303 15.6953C5.43323 12.9161 2.83557 10.1231 0.250064 7.31639C0.137189 7.06041 0.195782 6.85858 0.425845 6.71092C1.75397 6.68487 3.08209 6.68487 4.41022 6.71092C4.55862 6.82018 4.69534 6.94389 4.82038 7.08202C5.561 7.96596 6.3162 8.83834 7.086 9.6992C8.11682 7.72577 9.46448 5.98748 11.129 4.48436C12.9924 2.83002 15.0236 1.41726 17.2227 0.246079Z" fill="#1C4531"/>
</svg>
