<svg width="33" height="32" viewBox="0 0 33 32" fill="none" xmlns="http://www.w3.org/2000/svg">
<circle cx="16.5" cy="16" r="16" transform="rotate(-90 16.5 16)" fill="#1C4531"/>
<path opacity="0.98" fill-rule="evenodd" clip-rule="evenodd" d="M15.7969 10.4844C16.105 10.4172 16.329 10.5213 16.4687 10.7969C16.474 13.1615 16.4896 15.5261 16.5156 17.8906C17.0945 17.4211 17.6778 16.9576 18.2656 16.5C18.706 16.3607 18.9664 16.5169 19.0469 16.9687C19.0201 17.1474 18.9367 17.2932 18.7969 17.4062C17.9635 18.0729 17.1302 18.7396 16.2969 19.4062C16.0885 19.5104 15.8802 19.5104 15.6719 19.4062C14.8385 18.7396 14.0052 18.0729 13.1719 17.4062C13.0267 17.2403 12.9798 17.0476 13.0312 16.8281C13.1745 16.5456 13.3984 16.4466 13.7031 16.5312C14.2999 16.9665 14.8832 17.4196 15.4531 17.8906C15.4792 15.5261 15.4948 13.1615 15.5 10.7969C15.5632 10.6556 15.6622 10.5514 15.7969 10.4844Z" fill="#E6E6E6"/>
<path opacity="0.99" fill-rule="evenodd" clip-rule="evenodd" d="M10.2969 17.4844C10.605 17.4172 10.829 17.5213 10.9688 17.7969C10.9792 18.526 10.9896 19.2552 11 19.9844C11.0365 20.2708 11.1979 20.4323 11.4844 20.4687C14.4844 20.4896 17.4844 20.4896 20.4844 20.4687C20.7708 20.4323 20.9323 20.2708 20.9688 19.9844C20.9792 19.2552 20.9896 18.526 21 17.7969C21.1398 17.5162 21.3638 17.4172 21.6719 17.5C21.8125 17.5573 21.9115 17.6562 21.9688 17.7969C21.9896 18.6302 21.9896 19.4635 21.9688 20.2969C21.8073 20.9166 21.4167 21.3073 20.7969 21.4687C17.5885 21.4896 14.3802 21.4896 11.1719 21.4687C10.5521 21.3073 10.1615 20.9166 10 20.2969C9.97917 19.4635 9.97917 18.6302 10 17.7969C10.0632 17.6556 10.1622 17.5515 10.2969 17.4844Z" fill="#E6E6E6"/>
</svg>
