<svg width="20" height="14" viewBox="0 0 20 14" fill="none" xmlns="http://www.w3.org/2000/svg">
<path opacity="0.965" fill-rule="evenodd" clip-rule="evenodd" d="M19.9805 1.04297C19.9805 5.00129 19.9805 8.95965 19.9805 12.918C19.8535 13.2987 19.5931 13.5396 19.1992 13.6406C13.0534 13.6667 6.90754 13.6667 0.761719 13.6406C0.367845 13.5396 0.107429 13.2987 -0.0195312 12.918C-0.0195312 8.95965 -0.0195312 5.00129 -0.0195312 1.04297C0.107429 0.662243 0.367845 0.42136 0.761719 0.320313C6.90754 0.294271 13.0534 0.294271 19.1992 0.320313C19.5931 0.42136 19.8535 0.662243 19.9805 1.04297ZM1.46484 1.12109C7.13539 1.07555 12.8125 1.06902 18.4961 1.10156C15.8659 3.08074 13.2357 5.05988 10.6055 7.03906C10.1888 7.32551 9.77215 7.32551 9.35547 7.03906C6.73109 5.05656 4.10086 3.08391 1.46484 1.12109ZM0.761719 1.62891C3.47471 3.64344 6.18305 5.66817 8.88672 7.70313C9.4341 8.04984 10.02 8.12797 10.6445 7.9375C10.8395 7.85309 11.0218 7.74891 11.1914 7.625C13.8437 5.61203 16.5064 3.61336 19.1797 1.62891C19.2057 5.17059 19.2057 8.71223 19.1797 12.2539C17.7734 10.5091 16.3672 8.76434 14.9609 7.01953C14.6769 6.7459 14.4295 6.77192 14.2188 7.09766C14.1831 7.25203 14.2092 7.39527 14.2969 7.52734C15.7357 9.30469 17.1745 11.082 18.6133 12.8594C12.8581 12.8854 7.10285 12.8854 1.34766 12.8594C2.83596 11.0478 4.30082 9.21836 5.74219 7.37109C5.80559 6.98277 5.64281 6.80699 5.25391 6.84375C5.15227 6.87824 5.06762 6.93684 5 7.01953C3.59375 8.76434 2.1875 10.5091 0.78125 12.2539C0.761719 8.71227 0.755207 5.17059 0.761719 1.62891Z" fill="#1C4531"/>
</svg>
