<svg width="20" height="20" viewBox="0 0 20 20" fill="none" xmlns="http://www.w3.org/2000/svg">
<g clip-path="url(#clip0_14_11)">
<path opacity="0.955" fill-rule="evenodd" clip-rule="evenodd" d="M3.61328 -0.0195312C3.8737 -0.0195312 4.1341 -0.0195312 4.39453 -0.0195312C4.60637 0.0448578 4.81469 0.129493 5.01953 0.234375C5.19586 0.355124 5.36512 0.485332 5.52734 0.625C6.48668 1.55826 7.4177 2.51529 8.32031 3.49609C8.86969 4.46535 8.7525 5.35078 7.96875 6.15234C7.49234 6.6418 7.00406 7.11703 6.50391 7.57812C7.0118 8.62652 7.66937 9.57055 8.47656 10.4102C9.39359 11.4105 10.4157 12.2764 11.543 13.0078C11.8013 13.1598 12.0683 13.2965 12.3438 13.418C12.8825 12.9183 13.4098 12.404 13.9258 11.875C14.7826 11.1671 15.668 11.1281 16.582 11.7578C17.5391 12.7148 18.4961 13.6719 19.4531 14.6289C19.761 15.0095 19.9368 15.4392 19.9805 15.918C19.9805 15.944 19.9805 15.97 19.9805 15.9961C19.9439 16.4375 19.7941 16.8411 19.5312 17.207C18.8997 17.8646 18.2682 18.5221 17.6367 19.1797C17.1257 19.6176 16.5398 19.8845 15.8789 19.9805C15.5013 19.9805 15.1237 19.9805 14.7461 19.9805C13.5371 19.8011 12.3782 19.443 11.2695 18.9062C7.37535 17.014 4.29594 14.2211 2.03125 10.5273C1.09701 9.01383 0.445969 7.38621 0.078125 5.64453C0.0421078 5.30043 0.00955555 4.96187 -0.0195312 4.62891C-0.0195312 4.60285 -0.0195312 4.57684 -0.0195312 4.55078C-0.00142243 3.77386 0.239463 3.07073 0.703125 2.44141C1.38795 1.69146 2.1106 0.981832 2.87109 0.3125C3.11318 0.178206 3.36057 0.0675289 3.61328 -0.0195312ZM3.76953 1.03516C3.96871 1.02245 4.16402 1.04198 4.35547 1.09375C4.49648 1.16969 4.62668 1.26084 4.74609 1.36719C5.57293 2.19401 6.39973 3.02083 7.22656 3.84766C7.67238 4.28523 7.71145 4.75398 7.34375 5.25391C6.79574 5.81496 6.23586 6.36184 5.66406 6.89453C5.56629 7.0118 5.48816 7.14199 5.42969 7.28516C5.40363 7.4284 5.40363 7.5716 5.42969 7.71484C5.69988 8.4116 6.05145 9.06266 6.48438 9.66797C7.70988 11.3233 9.17473 12.723 10.8789 13.8672C11.2695 14.0755 11.6602 14.2839 12.0508 14.4922C12.394 14.607 12.7065 14.5549 12.9883 14.3359C13.6156 13.6825 14.2667 13.0575 14.9414 12.4609C15.2757 12.322 15.5882 12.3611 15.8789 12.5781C16.8099 13.5091 17.7409 14.4401 18.6719 15.3711C18.942 15.752 18.955 16.1427 18.7109 16.543C18.0784 17.2145 17.4339 17.8721 16.7773 18.5156C16.2709 18.8604 15.711 19.0036 15.0977 18.9453C14.2196 18.8658 13.3733 18.6575 12.5586 18.3203C7.72844 16.1985 4.18023 12.7545 1.91406 7.98828C1.41316 6.92211 1.12019 5.80234 1.03516 4.62891C1.04018 4.09965 1.18993 3.61787 1.48438 3.18359C2.08871 2.54018 2.7072 1.90867 3.33984 1.28906C3.48032 1.19295 3.62354 1.10831 3.76953 1.03516Z" fill="#1C4531"/>
</g>
<defs>
<clipPath id="clip0_14_11">
<rect width="20" height="20" fill="white"/>
</clipPath>
</defs>
</svg>
