<svg width="32" height="32" viewBox="0 0 32 32" fill="none" xmlns="http://www.w3.org/2000/svg">
<circle cx="16" cy="16" r="16" transform="rotate(-90 16 16)" fill="#1C4531"/>
<path d="M9 15.5C8.72386 15.5 8.5 15.7239 8.5 16C8.5 16.2761 8.72386 16.5 9 16.5V15.5ZM22.8536 16.3536C23.0488 16.1583 23.0488 15.8417 22.8536 15.6464L19.6716 12.4645C19.4763 12.2692 19.1597 12.2692 18.9645 12.4645C18.7692 12.6597 18.7692 12.9763 18.9645 13.1716L21.7929 16L18.9645 18.8284C18.7692 19.0237 18.7692 19.3403 18.9645 19.5355C19.1597 19.7308 19.4763 19.7308 19.6716 19.5355L22.8536 16.3536ZM9 16.5H22.5V15.5H9V16.5Z" fill="#E6E6E6"/>
</svg>
