<svg width="33" height="32" viewBox="0 0 33 32" fill="none" xmlns="http://www.w3.org/2000/svg">
<circle cx="16.5" cy="16" r="16" transform="rotate(-90 16.5 16)" fill="#E6E6E6"/>
<path d="M9.5 15.5C9.22386 15.5 9 15.7239 9 16C9 16.2761 9.22386 16.5 9.5 16.5V15.5ZM23.3536 16.3536C23.5488 16.1583 23.5488 15.8417 23.3536 15.6464L20.1716 12.4645C19.9763 12.2692 19.6597 12.2692 19.4645 12.4645C19.2692 12.6597 19.2692 12.9763 19.4645 13.1716L22.2929 16L19.4645 18.8284C19.2692 19.0237 19.2692 19.3403 19.4645 19.5355C19.6597 19.7308 19.9763 19.7308 20.1716 19.5355L23.3536 16.3536ZM9.5 16.5H23V15.5H9.5V16.5Z" fill="#151515"/>
</svg>
